HIERARCHY
ROOT Hips
{
	OFFSET -14.64140 90.27770 -84.91600
	CHANNELS 6 Xposition Yposition Zposition Zrotation Xrotation Yrotation
	JOINT Spine
	{
		OFFSET 0.00000 13.20850 -1.60436
		CHANNELS 3 Zrotation Xrotation Yrotation
		JOINT Spine1
		{
			OFFSET 0.00000 8.61716 0.00000
			CHANNELS 3 Zrotation Xrotation Yrotation
			JOINT Spine2
			{
				OFFSET 0.00000 8.61717 0.00000
				CHANNELS 3 Zrotation Xrotation Yrotation
				JOINT Spine3
				{
					OFFSET 0.00000 8.61717 0.00000
					CHANNELS 3 Zrotation Xrotation Yrotation
					JOINT Neck
					{
						OFFSET 0.00000 11.07920 1.10792
						CHANNELS 3 Zrotation Xrotation Yrotation
						JOINT Neck1
						{
							OFFSET 0.00000 7.08032 0.00000
							CHANNELS 3 Zrotation Xrotation Yrotation
							JOINT Head
							{
								OFFSET 0.00000 7.08031 0.00000
								CHANNELS 3 Zrotation Xrotation Yrotation
								End site
								{
									OFFSET 0.00000 0.00000 0.00000
								}
							}
						}
					}
					JOINT RightShoulder
					{
						OFFSET -0.01000 7.91373 5.19711
						CHANNELS 3 Zrotation Xrotation Yrotation
						JOINT RightArm
						{
							OFFSET -18.41580 0.00000 0.00000
							CHANNELS 3 Zrotation Xrotation Yrotation
							JOINT RightForeArm
							{
								OFFSET -29.11090 0.00000 0.00000
								CHANNELS 3 Zrotation Xrotation Yrotation
								JOINT RightHand
								{
									OFFSET -24.65040 0.00000 0.00000
									CHANNELS 3 Zrotation Xrotation Yrotation
									JOINT RightHandThumb1
									{
										OFFSET -5.35114 -0.85590 3.97906
										CHANNELS 3 Zrotation Xrotation Yrotation
										JOINT RightHandThumb2
										{
											OFFSET -4.52789 0.00000 0.00000
											CHANNELS 3 Zrotation Xrotation Yrotation
											JOINT RightHandThumb3
											{
												OFFSET -2.46976 0.00000 0.00000
												CHANNELS 3 Zrotation Xrotation Yrotation
												End site
												{
													OFFSET 0.00000 0.00000 0.00000
												}
											}
										}
									}
									JOINT RightHandIndex1
									{
										OFFSET -14.26970 0.00000 2.88139
										CHANNELS 3 Zrotation Xrotation Yrotation
										JOINT RightHandIndex2
										{
											OFFSET -5.48836 0.00000 0.00000
											CHANNELS 3 Zrotation Xrotation Yrotation
											JOINT RightHandIndex3
											{
												OFFSET -3.01859 0.00000 0.00000
												CHANNELS 3 Zrotation Xrotation Yrotation
												End site
												{
													OFFSET 0.00000 0.00000 0.00000
												}
											}
										}
									}
									JOINT RightHandMiddle1
									{
										OFFSET -14.26970 0.00000 -0.09147
										CHANNELS 3 Zrotation Xrotation Yrotation
										JOINT RightHandMiddle2
										{
											OFFSET -6.17441 0.00000 0.00000
											CHANNELS 3 Zrotation Xrotation Yrotation
											JOINT RightHandMiddle3
											{
												OFFSET -3.56743 0.00000 0.00000
												CHANNELS 3 Zrotation Xrotation Yrotation
												End site
												{
													OFFSET 0.00000 0.00000 0.00000
												}
											}
										}
									}
									JOINT RightHandRing1
									{
										OFFSET -12.69180 0.00000 -3.06433
										CHANNELS 3 Zrotation Xrotation Yrotation
										JOINT RightHandRing2
										{
											OFFSET -5.62556 0.00000 0.00000
											CHANNELS 3 Zrotation Xrotation Yrotation
											JOINT RightHandRing3
											{
												OFFSET -3.56744 0.00000 0.00000
												CHANNELS 3 Zrotation Xrotation Yrotation
												End site
												{
													OFFSET 0.00000 0.00000 0.00000
												}
											}
										}
									}
									JOINT RightHandPinky1
									{
										OFFSET -11.11390 0.00000 -6.03719
										CHANNELS 3 Zrotation Xrotation Yrotation
										JOINT RightHandPinky2
										{
											OFFSET -4.52789 0.00000 0.00000
											CHANNELS 3 Zrotation Xrotation Yrotation
											JOINT RightHandPinky3
											{
												OFFSET -2.46976 0.00000 0.00000
												CHANNELS 3 Zrotation Xrotation Yrotation
												End site
												{
													OFFSET 0.00000 0.00000 0.00000
												}
											}
										}
									}
								}
							}
						}
					}
					JOINT LeftShoulder
					{
						OFFSET 0.01000 7.91373 5.19711
						CHANNELS 3 Zrotation Xrotation Yrotation
						JOINT LeftArm
						{
							OFFSET 18.41580 0.00000 0.00000
							CHANNELS 3 Zrotation Xrotation Yrotation
							JOINT LeftForeArm
							{
								OFFSET 29.11090 0.00000 0.00000
								CHANNELS 3 Zrotation Xrotation Yrotation
								JOINT LeftHand
								{
									OFFSET 24.65040 0.00000 0.00000
									CHANNELS 3 Zrotation Xrotation Yrotation
									JOINT LeftHandThumb1
									{
										OFFSET 5.35114 -0.85590 3.97906
										CHANNELS 3 Zrotation Xrotation Yrotation
										JOINT LeftHandThumb2
										{
											OFFSET 4.52789 0.00000 0.00000
											CHANNELS 3 Zrotation Xrotation Yrotation
											JOINT LeftHandThumb3
											{
												OFFSET 2.46977 0.00000 0.00000
												CHANNELS 3 Zrotation Xrotation Yrotation
												End site
												{
													OFFSET 0.00000 0.00000 0.00000
												}
											}
										}
									}
									JOINT LeftHandIndex1
									{
										OFFSET 14.26970 0.00000 2.88139
										CHANNELS 3 Zrotation Xrotation Yrotation
										JOINT LeftHandIndex2
										{
											OFFSET 5.48836 0.00000 0.00000
											CHANNELS 3 Zrotation Xrotation Yrotation
											JOINT LeftHandIndex3
											{
												OFFSET 3.01859 0.00000 0.00000
												CHANNELS 3 Zrotation Xrotation Yrotation
												End site
												{
													OFFSET 0.00000 0.00000 0.00000
												}
											}
										}
									}
									JOINT LeftHandMiddle1
									{
										OFFSET 14.26970 0.00000 -0.09147
										CHANNELS 3 Zrotation Xrotation Yrotation
										JOINT LeftHandMiddle2
										{
											OFFSET 6.17440 0.00000 0.00000
											CHANNELS 3 Zrotation Xrotation Yrotation
											JOINT LeftHandMiddle3
											{
												OFFSET 3.56744 0.00000 0.00000
												CHANNELS 3 Zrotation Xrotation Yrotation
												End site
												{
													OFFSET 0.00000 0.00000 0.00000
												}
											}
										}
									}
									JOINT LeftHandRing1
									{
										OFFSET 12.69180 0.00000 -3.06433
										CHANNELS 3 Zrotation Xrotation Yrotation
										JOINT LeftHandRing2
										{
											OFFSET 5.62556 0.00000 0.00000
											CHANNELS 3 Zrotation Xrotation Yrotation
											JOINT LeftHandRing3
											{
												OFFSET 3.56744 0.00000 0.00000
												CHANNELS 3 Zrotation Xrotation Yrotation
												End site
												{
													OFFSET 0.00000 0.00000 0.00000
												}
											}
										}
									}
									JOINT LeftHandPinky1
									{
										OFFSET 11.11390 0.00000 -6.03719
										CHANNELS 3 Zrotation Xrotation Yrotation
										JOINT LeftHandPinky2
										{
											OFFSET 4.52789 0.00000 0.00000
											CHANNELS 3 Zrotation Xrotation Yrotation
											JOINT LeftHandPinky3
											{
												OFFSET 2.46976 0.00000 0.00000
												CHANNELS 3 Zrotation Xrotation Yrotation
												End site
												{
													OFFSET 0.00000 0.00000 0.00000
												}
											}
										}
									}
								}
							}
						}
					}
					JOINT pCube4
					{
						OFFSET 0.00000 10.91090 1.10792
						CHANNELS 3 Zrotation Xrotation Yrotation
						End site
						{
							OFFSET 0.00000 0.00000 0.00000
						}
					}
				}
			}
		}
	}
	JOINT RightUpLeg
	{
		OFFSET -9.98441 0.00000 0.00000
		CHANNELS 3 Zrotation Xrotation Yrotation
		JOINT RightLeg
		{
			OFFSET 0.00000 -42.11790 0.00000
			CHANNELS 3 Zrotation Xrotation Yrotation
			JOINT RightFoot
			{
				OFFSET 0.00000 -45.00020 -0.00001
				CHANNELS 3 Zrotation Xrotation Yrotation
				JOINT RightForeFoot
				{
					OFFSET 0.00000 -3.74820 0.00000
					CHANNELS 3 Zrotation Xrotation Yrotation
					JOINT RightToeBase
					{
						OFFSET 0.00000 0.06325 14.43120
						CHANNELS 3 Zrotation Xrotation Yrotation
						End site
						{
							OFFSET 0.00000 0.00000 0.00000
						}
					}
				}
			}
		}
	}
	JOINT LeftUpLeg
	{
		OFFSET 9.98441 0.00000 0.00000
		CHANNELS 3 Zrotation Xrotation Yrotation
		JOINT LeftLeg
		{
			OFFSET 0.00000 -42.11800 0.00000
			CHANNELS 3 Zrotation Xrotation Yrotation
			JOINT LeftFoot
			{
				OFFSET 0.00000 -45.00070 0.00000
				CHANNELS 3 Zrotation Xrotation Yrotation
				JOINT LeftForeFoot
				{
					OFFSET 0.00000 -3.74824 0.00000
					CHANNELS 3 Zrotation Xrotation Yrotation
					JOINT LeftToeBase
					{
						OFFSET 0.00000 0.06325 14.43110
						CHANNELS 3 Zrotation Xrotation Yrotation
						End site
						{
							OFFSET 0.00000 0.00000 0.00000
						}
					}
				}
			}
		}
	}
}
MOTION
Frames: 4
Frame Time: 0.050000
0.043507394393129506 -0.04124115214905536 -0.013147047490323444 -0.027878310579155043 -0.04602496399460043 0.011137818649521715 2.8406289830541906 3.7511352773821542 -1.8041033566963067 -0.652796457225259 3.529040044171518 0.4133873425726408 -0.756851033632434 -1.0954707026366088 1.6591816392433485 -0.9067720299563184 -0.6690429008196316 -0.2335458922367726 0.352453572268514 11.945592241334237 -1.9790358928757226 0.10152999537539689 -0.937749812705149 -6.17037274854743 0.90719825427431 -17.098349169360834 -0.5347032311086795 -9.595727382324753 3.530600726080885 -15.696069547438249 76.30929114818835 -9.060104385203616 23.428396303211233 22.19638016189251 4.833899143140539 80.09117781005538 17.148514734687613 -0.45015657908237144 -5.919731661599207 4.525355684230822 -0.15769779104612597 -1.6305145803353878 -0.013084469712878482 -0.04123970804363286 -56.27356737273056 -0.010415321637810072 0.02568535019577303 -56.219819332504876 -38.78877074815682 0.03351662617212881 -0.032945249122070426 -0.022642972369733616 -0.01905179692893813 -0.036477797773467865 0.005984035102061937 0.005977105207417742 -0.04082900091701685 -36.69831813846767 -0.017668445314347744 -0.006015512545153017 0.04633132054530932 0.025558595799048005 -0.007524477757159285 -0.021553128638007853 0.013899279598717321 -0.03547744712775102 -19.743729087095044 -0.02342293779214946 -0.049294560099395306 -0.04537749479136883 -0.0025090486932936337 -0.013336943987701655 0.04092593323098002 0.032076509465611705 -0.04833903386938448 24.099708379874855 -0.030492965683484235 -0.00813815678067354 28.88924051728048 0.009375646539368334 -0.014128185736788784 28.834515396986376 -0.004576614364121479 0.030805830280253896 7.79171442772209 2.038908475074387 13.811721270618625 -74.97506212368262 7.196137746810343 -14.051276544754819 -11.087435035541091 12.627329018277312 -54.512744166450645 -21.31742909977057 2.3155826535489767 -0.7223969942963328 -0.46626362506738156 0.10222301331979236 -8.124305716478341 0.03481604306943678 0.011022855952512919 44.54038226953459 -0.03579843220673317 0.005138041500476637 44.59488972932402 12.42924944445522 0.0294163405216543 0.019024309063358207 -0.028863737784573094 0.012800970811531162 -0.03725506712250118 -0.048588668660759074 0.0042480585091737594 0.01811590078647252 11.061441881165253 0.01956633183333227 -0.048869415966176326 -0.0014205606845582271 -0.0025783689812698776 0.03157061946277848 -0.03403054188486354 -0.04752518969588466 0.015470651454357685 4.733336020358131 -0.025103403322589958 -0.035212618738697195 0.01158333852628969 0.03745111762405324 0.021871173132361324 0.017674244373379114 0.027142899475374484 0.03596148176122759 -5.617387866330929 0.034435377349137 -0.0485177839391356 -6.734821481229483 0.019321426531300197 0.010441246816858462 -6.737684259189499 0.03663553191138505 -0.046914722683654 0.029095871664829926 -0.008696268096360312 -0.0353356523089555 8.022985251155207 3.521889580818801 -19.21425004309781 0.011490887494622824 10.377380784850814 0.04885107501254897 -5.640358573377934 -15.671614118038033 3.224858094886684 0.016074048594843654 -0.019171300114457494 0.01194327794920428 0.023994151248177737 4.741292107944162 0.01411412060032006 12.409500530352263 -8.200221170189566 6.875810443762314 0.03776131829183415 46.35163406206635 0.043370908951746265 -4.338921012025017 -14.769315511827953 -3.8038394362408483 -0.04410965096651499 -0.002598346334222048 0.019673413295586164 -0.04189772125279269 -10.743837228053094 0.012543233407012492 
-0.03355295819149736 0.0063649782985033855 -0.04349019502919398 0.008931264695497626 0.030682307885652318 0.04902088646817218 2.594449774024277 3.688080641680405 -1.68739267040093 -0.7162141430934534 3.5664752873855083 0.4160744913725188 -0.7626154789224296 -1.1230263838823706 1.855969941606169 -0.8389080224561101 -0.6778826041217458 -0.26263976845019543 0.43848291659500793 12.07614196749819 -2.299132671541466 0.1547461135348157 -0.834182632090201 -7.01443737396716 1.0063409529784455 -16.929160566865953 -0.5649109436488395 -9.796175621508667 3.5607009613332705 -15.596519106458354 75.410147689212 -10.614036555362835 25.81864415988197 22.154827824580526 4.965216777374397 80.94760149889824 16.721537179397743 -0.44296690806955236 -5.467871598530821 4.539332613817779 -0.07755990746949927 -1.6197631785226243 -0.047080962679205036 -0.017562420283706203 -56.201656352628135 -0.01463174769353426 0.03424127308735488 -56.27271427749612 -38.78892906378002 0.04446883701115301 -0.006576561043827972 -0.0313807091363617 0.04646118872500223 0.02777700025137508 0.0450829087284288 -0.03757074241571379 0.042182362712796406 -36.65431678578366 -0.007943231183525119 0.008141139090529501 0.023664092454738352 0.012832316913985562 -0.002906345146521569 0.04077251443027646 -0.014778677105656583 -0.0186940712807363 -19.75333348672424 0.011870473574587613 0.03426285828020384 0.018751177126547995 -0.04252565271760737 -0.0058016775329677505 0.0341079835616627 0.0056647424690097125 -0.011472992589026494 24.101423556727163 -0.028014728460582134 0.04195783031572609 28.869429774217625 -0.015015221426580395 -0.02073447764573232 28.82635930654345 0.04807834643674591 -0.041646593247935626 7.44487921409218 1.9314419770346507 13.77823481436864 -75.07898842300172 5.959209301958673 -14.186012594549801 -8.777690683358587 14.58099457458573 -52.62842325355435 -20.790741674603886 4.667027308446829 -2.1006368790021397 -0.4449080396467059 0.07385518254954705 -8.089658088685848 0.03365971107574991 -0.038830716087705816 44.54652996259866 -0.023270634200510933 -0.010009948083124269 44.54951158328845 12.47060340667396 -0.03339691788037294 0.04833576144003591 0.0007379498944714729 0.03604241326232271 0.003484885145976289 0.01062531934151943 -0.014214105732761715 0.02746951298137623 11.061367692155377 -0.02710657149737759 0.013005505853035186 0.014857078031568407 0.033885252797818434 0.020878551786251483 -0.03668196904043566 0.017301221899569633 0.04254305600736284 4.737809473846984 0.03756157589453491 0.0010312228089573187 0.03803595331832997 0.03689297736217872 0.0021564327431837457 0.005622608231717952 0.039456410482948054 -0.013263713369412665 -5.646549403147472 -0.029546153631909843 -0.022269935433372558 -6.69340701571822 0.019797609553954064 -0.037250712142930596 -6.693922495571287 -0.0056233782347644415 -0.04952204558987527 0.004526562858073412 0.036132158989772505 0.0324454804494087 8.028430520282386 3.4588126385070677 -19.176484556220124 0.02414955967985808 10.362448525726531 0.058942725518550995 -5.577344541350956 -15.680751107797388 3.2086443931707764 -0.03489353717035359 -0.003778255660761371 -0.04418429036370236 0.03565892019832378 4.7365141873943415 0.005183749795395812 12.440129819900214 -8.268141030483385 6.889844172949989 -0.03088399222600313 46.37695412959189 0.02198155395383621 -4.336104054233614 -14.735821578199422 -3.8089377277704903 -0.04242040381268197 0.0305241888837842 -0.02348432138803433 0.03941806320949464 -10.74749960552229 -0.0014670986490166432 
-0.012532705845800017 -0.013310214159187927 0.007926087834143052 -0.019445874059278185 0.018466953610697296 0.0370374107811191 2.355355968169833 3.624839352371281 -1.630182745604347 -0.7071625503836915 3.591173892557016 0.43484846162167173 -0.8737474294581559 -1.172248249824676 1.9981697999499561 -0.8973847576538616 -0.6841450607384749 -0.17446447322008668 0.5095571287750421 12.25057150370369 -2.4058498753697073 0.15773054520145519 -0.7577376531749788 -7.471738040632373 1.0472077997819573 -16.77587575260831 -0.630023945092499 -9.855689834516742 3.5417641602931207 -15.471748118576903 74.26478390405435 -12.427794964306866 28.413597767269266 21.603417253364025 4.834494579127201 81.07466095663167 16.417549203072138 -0.43367976274688097 -5.13887462515357 4.482361309488527 -0.15230196722089262 -1.5814188605869057 0.03569927893483607 0.03504453686962125 -56.235999857560046 -0.021901287380265314 -0.03853707059605638 -56.21346540620483 -38.79157852545566 -0.04973807873277667 0.00672759971976747 -0.007776107570715393 0.03373169367904325 -0.019694995134314528 0.02270327558726709 -0.041354745376901696 -0.036449737909827105 -36.689612827536 0.019198668727649835 0.037657737927997995 -0.003997226564560627 0.022874824951464715 0.001805345452241124 -0.04118181861276002 0.009087942676731478 -0.0012269875015644982 -19.794956818753395 0.012993072705182955 0.04629933815789219 -0.0237012135600042 0.0414730133703593 0.011253192449268605 -0.014573199673093755 -0.015772506988684765 0.013240166962783647 24.091646853896126 -0.00015339588295317286 -0.013709022382392551 28.858004819454763 0.023567350537927356 0.007937915623627905 28.86443340723582 -0.027253934984498702 -0.030358131855698828 7.127962607259638 1.927400456988294 13.814150540613975 -75.19993437945767 4.347344415074028 -14.083452896692634 -5.298935845582986 16.102503397313864 -49.40256473678698 -20.60704797616636 6.853397605850796 -3.40771220849835 -0.44595065036021514 0.09606326701876307 -8.106231532505637 0.0006553258235295959 0.021974759591563926 44.52463267719808 -0.00020074450619953933 -0.03801553012317614 44.597704403417126 12.468184474476036 -0.009058725585594063 -0.0010770512870729473 -0.0019126156133704136 -0.028940544994870684 -0.021767859082979 -0.027733005048705153 0.0041530155664566935 0.011915369352147778 11.130894582330203 -0.038486914973915085 0.0059945146628427115 -0.03121459369412323 -0.018837813694431788 -0.01658739287828569 0.026521328396979894 0.024748378097032928 0.0166300970272155 4.766854529420747 -0.03249066121719347 -0.03723688275212562 -0.004779224243565093 -0.008286070261672175 0.006931435908763654 -0.044458318631882786 -0.024425782700283984 -0.0024582758304452714 -5.574306863430709 -0.0062491288270929 0.021790998175753105 -6.671010956740107 -0.008773684174815506 0.02055649823356804 -6.720655139840029 0.026905969947150225 0.028668370765363438 0.032457327255458114 -0.020419946947336714 0.031751561849339915 8.039174097597199 3.530189699585208 -19.234007905308843 0.004870586495900001 10.394905878916799 0.005077623749714112 -5.58803385911402 -15.662706726289912 3.231073812268111 0.02568775666588449 0.001648343903837813 -0.022041684952308734 0.0012565014518973775 4.724598453039397 0.023281319465664828 12.415067969419615 -8.244696189674132 6.868304797468748 -0.028605288872986266 46.4005608332402 -0.04047281631210077 -4.277371268833707 -14.765533501258144 -3.8476285298373796 0.044402266479109075 0.0003259988430382912 -0.004141300729763111 -0.02199297494590868 -10.759476970934886 0.00396411599441739 
-0.034524011169672554 -0.030965998691763176 0.020514781128546284 0.026422988385977682 -0.03163632724589895 0.046072336569402135 2.0189433114688518 3.511430625611372 -1.6659286772444248 -0.676685832775846 3.6081853950767933 0.39027627014603433 -0.9136020177408712 -1.1974814080388179 2.111919926099116 -0.9537324149393339 -0.7299069962964787 -0.166662560271419 0.5970215727656568 12.281355284885535 -2.339162066239061 0.17981640228553936 -0.7809227062253566 -7.500768184726461 1.0512867900899754 -16.590067762655316 -0.5848552948604531 -9.72121048582685 3.580428411975998 -15.467408672088652 73.201461068692 -13.423203360666632 29.499672147201906 20.457454686186892 4.868737354933589 81.88588610818508 16.582298189321868 -0.42041439555440524 -4.857090168089286 4.53279054623871 -0.13672032954798613 -1.5866140825178308 -0.046336276399109734 -0.011377745896166346 -56.25491152152201 0.027457897725795485 -0.009996705597202305 -56.20027640050401 -38.73672199636467 0.02160192265646349 0.014312984471871312 0.006033001153892068 -0.017353535917462817 0.03283948416409017 -0.019009126616245195 0.020954187137956843 -0.038912638481034434 -36.67393715573606 0.022951604734864278 -0.0010878598286015722 -0.0009903211323034197 -0.0035347482245059823 0.004867444630350923 0.0037535693025029996 -0.008724376290502555 -0.04668386902799168 -19.78059111830768 0.045234180354455936 -0.02398683322808472 0.0092726042189434 -0.02131897558312124 0.01170221183521764 0.007993494366546295 -0.010181031964347787 0.030952054660409824 24.04367886047855 -0.028338312163022822 -0.008661711960503636 28.873401403246493 0.03267012626777476 0.026782535026724483 28.86434313073215 0.04845738595183783 -0.025376188181272272 6.761605128634323 1.8471044239163223 13.847434181491199 -75.48360134494136 3.506311358581268 -13.417680638209788 -1.8011585489986401 17.12548069396313 -46.39611347916734 -20.491304277953244 8.831323336630597 -4.598639277992326 -0.4570373166275766 0.05831047549577053 -8.146773064037784 -0.019551511281047883 0.010118942266461883 44.581679667619284 0.015466332690693122 -0.016486859827084643 44.55310846871765 12.45893680469175 -0.04437783392584985 -0.04650568813311029 0.01780819282346413 0.034532283645777324 0.037699266708100754 0.011191392264313106 0.028502738161139067 0.013555488905676998 11.130917613899676 -0.013491432134061206 0.047786843081332915 -0.032162547934306014 -0.040346788565438836 -0.02926563321652576 -0.03135232592263696 -0.02703216129559075 -0.020561830249028225 4.778363706790928 -0.028292104611034336 -0.025007398400440407 0.0012964615702897343 0.025552692042427612 -0.006770507280079579 -0.018025010130542717 0.047382500978088674 0.032332754529341375 -5.596865004414999 -0.04442597985701417 0.049015484770636435 -6.703255998751473 -0.019405030660752155 0.02364298114404503 -6.7337765020956795 0.00598139304747664 -0.011608643244510062 -0.0066192441506272605 -0.018030363765522917 -0.016754959141655593 8.070293185252945 3.5231094966831185 -19.26077532868269 -0.04458434109617967 10.349189420227555 0.030719568163642363 -5.607949715189921 -15.626831217208679 3.1921597145896823 -0.023865510321719383 -0.022552449939288205 -0.028246862008344805 -0.011639584927585406 4.648990961838973 -0.026380236658825326 12.45838979714182 -8.27900182499079 6.91351501590563 -0.027032723312252746 46.3308955465076 -0.040276890874008285 -4.3519994539744875 -14.731619528872693 -3.806185131969142 -0.039488248860522844 -0.03512030837899436 0.017933933191329535 -0.0010670196002837095 -10.786887188349015 0.0076856629334681485 
